<svg xmlns="http://www.w3.org/2000/svg" width="28" height="27" viewBox="0 0 28 27"><defs><style>.a,.d{fill:none;}.a{stroke:#fff;stroke-linejoin:round;}.b{fill:#fff;}.c{stroke:none;}</style></defs><g transform="translate(-3038 2509)"><g class="a" transform="translate(3038 -2509)"><rect class="c" width="28" height="27" rx="4"/><rect class="d" x="0.5" y="0.5" width="27" height="26" rx="3.5"/></g><path class="b" d="M5.417,4.716A2.694,2.694,0,0,0,2.638,7.324,2.694,2.694,0,0,0,5.417,9.933,2.694,2.694,0,0,0,8.2,7.324,2.694,2.694,0,0,0,5.417,4.716Zm0,4.3a1.757,1.757,0,0,1-1.807-1.7,1.756,1.756,0,0,1,1.807-1.7,1.756,1.756,0,0,1,1.807,1.7,1.757,1.757,0,0,1-1.807,1.7ZM8.958,4.609A.65.65,0,1,1,8.31,4,.628.628,0,0,1,8.958,4.609Zm1.841.617A2.911,2.911,0,0,0,9.923,3.1a3.35,3.35,0,0,0-2.271-.822c-.895-.048-3.577-.048-4.472,0a3.345,3.345,0,0,0-2.271.82A2.92,2.92,0,0,0,.033,5.225c-.051.84-.051,3.358,0,4.2a2.911,2.911,0,0,0,.876,2.132,3.354,3.354,0,0,0,2.271.822c.895.048,3.577.048,4.472,0a3.328,3.328,0,0,0,2.271-.822A2.93,2.93,0,0,0,10.8,9.422c.051-.84.051-3.355,0-4.2Zm-1.156,5.1a1.777,1.777,0,0,1-1.03.967,12.712,12.712,0,0,1-3.2.2,12.811,12.811,0,0,1-3.2-.2,1.777,1.777,0,0,1-1.03-.967,10.539,10.539,0,0,1-.218-3,10.621,10.621,0,0,1,.218-3,1.777,1.777,0,0,1,1.03-.967,12.712,12.712,0,0,1,3.2-.2,12.811,12.811,0,0,1,3.2.2,1.777,1.777,0,0,1,1.03.967,10.539,10.539,0,0,1,.218,3A10.533,10.533,0,0,1,9.643,10.323Z" transform="translate(3046.584 -2502.824)"/></g></svg>