<svg xmlns="http://www.w3.org/2000/svg" width="28" height="27" viewBox="0 0 28 27"><defs><style>.a,.d{fill:none;}.a{stroke:#fff;stroke-linejoin:round;}.b{fill:#fff;}.c{stroke:none;}</style></defs><g transform="translate(-3038 2509)"><g class="a" transform="translate(3038 -2509)"><rect class="c" width="28" height="27" rx="4"/><rect class="d" x="0.5" y="0.5" width="27" height="26" rx="3.5"/></g><g transform="translate(3047.218 -2499.515)"><path class="b" d="M14.589,13.216h0V10.192c0-1.479-.365-2.618-2.345-2.618a2.125,2.125,0,0,0-1.852.889h-.028v-.75H8.489v5.5h1.955V10.49c0-.718.156-1.411,1.173-1.411s1.018.819,1.018,1.457v2.679Z" transform="translate(-5.149 -4.973)"/><path class="b" d="M.4,7.977H2.354v5.5H.4Z" transform="translate(-0.24 -5.237)"/><path class="b" d="M1.134,0A1.069,1.069,0,0,0,0,.99a1.077,1.077,0,0,0,1.134,1,1.077,1.077,0,0,0,1.134-1A1.07,1.07,0,0,0,1.134,0Z"/></g></g></svg>