<svg xmlns="http://www.w3.org/2000/svg" width="29.815" height="29.815" viewBox="0 0 29.815 29.815"><defs><style>.a{fill-rule:evenodd;}</style></defs><path d="M50.543,42.888A14.909,14.909,0,1,1,40,47.255a14.852,14.852,0,0,1,10.541-4.367Zm9.724,5.192a13.76,13.76,0,1,0,4.02,9.716,13.734,13.734,0,0,0-4.02-9.716Z" transform="translate(-35.636 -42.888)"/><path class="a" d="M78.033,71.709V70.488a.64.64,0,0,1,.669-.726H80.41V67.153H78.058a2.958,2.958,0,0,0-3.2,3.186v1.37H73.336v3.046h1.535v7.611h3.046V74.755h2.253l.1-1.2.182-1.849Z" transform="translate(-61.986 -59.848)"/></svg>