<svg xmlns="http://www.w3.org/2000/svg" width="29.815" height="29.823" viewBox="0 0 29.815 29.823"><g transform="translate(0)"><path d="M680.236,165.915a14.909,14.909,0,1,1-10.541,4.366,14.886,14.886,0,0,1,10.541-4.366Zm9.715,5.192a13.741,13.741,0,1,0,4.028,9.724,13.691,13.691,0,0,0-4.028-9.724Z" transform="translate(-665.328 -165.915)"/><g transform="translate(9.461 10.156)"><path d="M15.527,14.083h0V10.595c0-1.706-.421-3.021-2.706-3.021A2.452,2.452,0,0,0,10.687,8.6h-.032V7.733H8.489v6.35h2.256V10.939c0-.828.18-1.628,1.354-1.628,1.157,0,1.174.945,1.174,1.681v3.091Z" transform="translate(-4.636 -4.573)"/><path d="M.4,7.977H2.655v6.35H.4Z" transform="translate(-0.216 -4.816)"/><path d="M1.308,0A1.234,1.234,0,0,0,0,1.142,1.242,1.242,0,0,0,1.308,2.295,1.242,1.242,0,0,0,2.616,1.142,1.235,1.235,0,0,0,1.308,0Z"/></g></g></svg>