<svg xmlns="http://www.w3.org/2000/svg" width="29.815" height="29.823" viewBox="0 0 29.815 29.823"><defs><style>.a{fill-rule:evenodd;}</style></defs><g transform="translate(0)"><path d="M680.236,165.915a14.909,14.909,0,1,1-10.541,4.366,14.886,14.886,0,0,1,10.541-4.366Zm9.715,5.192a13.741,13.741,0,1,0,4.028,9.724,13.691,13.691,0,0,0-4.028-9.724Z" transform="translate(-665.328 -165.915)"/><path class="a" d="M704.788,196.669a6.66,6.66,0,0,1-1.791.487,3.08,3.08,0,0,0,1.379-1.709,6.36,6.36,0,0,1-1.989.751,3.136,3.136,0,0,0-5.407,2.1,3.209,3.209,0,0,0,.091.7,8.865,8.865,0,0,1-6.439-3.211,3.034,3.034,0,0,0,.958,4.1,3.022,3.022,0,0,1-1.411-.38v.041a2.907,2.907,0,0,0,.214,1.106,3.114,3.114,0,0,0,2.3,1.9,3.071,3.071,0,0,1-.826.115,2.782,2.782,0,0,1-.586-.066,3.149,3.149,0,0,0,2.914,2.146,6.315,6.315,0,0,1-3.872,1.313c-.256,0-.495-.017-.751-.042a9.012,9.012,0,0,0,4.788,1.379,8.687,8.687,0,0,0,8.675-6.884,8.446,8.446,0,0,0,.207-1.857v-.4a6.457,6.457,0,0,0,1.552-1.593Z" transform="translate(-682.27 -186.401)"/></g></svg>