<svg xmlns="http://www.w3.org/2000/svg" width="28" height="26" viewBox="0 0 28 26"><defs><style>.a,.d{fill:none;}.a{stroke:#fff;stroke-linejoin:round;}.b{fill:#fff;}.c{stroke:none;}</style></defs><g transform="translate(-2966 2508)"><g class="a" transform="translate(2966 -2508)"><rect class="c" width="28" height="26" rx="4"/><rect class="d" x="0.5" y="0.5" width="27" height="25" rx="3.5"/></g><g transform="translate(2975.258 -2497.757)"><path class="b" d="M9.075,48.762A4.327,4.327,0,0,1,8,49.019a1.675,1.675,0,0,0,.818-.9,4.06,4.06,0,0,1-1.18.393A2,2,0,0,0,6.283,48a1.754,1.754,0,0,0-1.859,1.625,1.469,1.469,0,0,0,.043.37A5.553,5.553,0,0,1,.632,48.3a1.481,1.481,0,0,0-.255.821,1.584,1.584,0,0,0,.826,1.35,2.046,2.046,0,0,1-.841-.2v.018a1.7,1.7,0,0,0,1.491,1.6,2.113,2.113,0,0,1-.488.053,1.878,1.878,0,0,1-.352-.028,1.864,1.864,0,0,0,1.738,1.132,4.1,4.1,0,0,1-2.307.693A3.985,3.985,0,0,1,0,53.709a5.8,5.8,0,0,0,2.854.729c3.424,0,5.3-2.476,5.3-4.622,0-.072,0-.141-.007-.21A3.49,3.49,0,0,0,9.075,48.762Z" transform="translate(0 -48)"/></g></g></svg>