<svg xmlns="http://www.w3.org/2000/svg" width="29.815" height="29.815" viewBox="0 0 29.815 29.815"><defs><style>.a{fill-rule:evenodd;}</style></defs><path d="M176.475,42.888a14.909,14.909,0,1,1-10.541,4.367,14.837,14.837,0,0,1,10.541-4.367ZM186.2,48.08a13.761,13.761,0,1,0,4.02,9.716,13.734,13.734,0,0,0-4.02-9.716Z" transform="translate(-161.568 -42.888)"/><path class="a" d="M189.93,75.062a3.818,3.818,0,1,1,3.813,3.822,3.822,3.822,0,0,1-3.813-3.822Zm7.759-7.47h-7.883a3.542,3.542,0,0,0-3.533,3.533v7.883a3.548,3.548,0,0,0,3.533,3.533h7.883a3.542,3.542,0,0,0,3.533-3.533V71.125a3.537,3.537,0,0,0-3.533-3.533Zm-7.883.883h7.883a2.653,2.653,0,0,1,2.65,2.65v7.883a2.653,2.653,0,0,1-2.65,2.65h-7.883a2.653,2.653,0,0,1-2.65-2.65V71.125a2.653,2.653,0,0,1,2.65-2.65Zm8.667,1.114a.776.776,0,1,0,.776.776.775.775,0,0,0-.776-.776Zm.091,5.473a4.821,4.821,0,1,0-4.821,4.82,4.821,4.821,0,0,0,4.821-4.82Z" transform="translate(-178.836 -60.155)"/></svg>