<svg xmlns="http://www.w3.org/2000/svg" width="104.611" height="108.821" viewBox="0 0 104.611 108.821"><defs><style>.a{fill:#003b49;}.b{fill:#024b5d;}.c{fill:#2d5872;}.d{fill:#e1effb;}.e{fill:#d9d9d9;}</style></defs><path class="a" d="M66.325,247.128H53.355a.737.737,0,0,0-.737.737V256.5a.737.737,0,0,0,.737.737H66.325a.737.737,0,0,0,.737-.737v-8.631A.737.737,0,0,0,66.325,247.128Z" transform="translate(-43.54 -194.603)"/><path class="b" d="M93.1,247.128H86.617v10.1H93.1a.737.737,0,0,0,.737-.737v-8.631A.737.737,0,0,0,93.1,247.128Z" transform="translate(-70.312 -194.603)"/><path class="c" d="M397.118,58.338a1.616,1.616,0,0,0-1.616,1.616v16.28a1.616,1.616,0,0,0,3.232,0V59.954A1.616,1.616,0,0,0,397.118,58.338Z" transform="translate(-313.547 -45.939)"/><path class="b" d="M389.454,136.858h-5.439a1.7,1.7,0,0,1-1.7-1.7v-5.944a1.7,1.7,0,0,1,1.7-1.7h5.439a1.7,1.7,0,0,1,1.7,1.7v5.944A1.7,1.7,0,0,1,389.454,136.858Z" transform="translate(-303.163 -100.414)"/><path class="b" d="M368.989,182.412H348.2a1.619,1.619,0,0,1-1.619-1.618V165.1a1.619,1.619,0,0,1,1.619-1.618h20.791a1.619,1.619,0,0,1,1.618,1.618v15.693A1.619,1.619,0,0,1,368.989,182.412Z" transform="translate(-275.022 -128.735)"/><path class="a" d="M348.177,266.257H311.693V199.929h35.588a.9.9,0,0,1,.9.9Z" transform="translate(-247.551 -157.436)"/><path class="b" d="M442.418,199.929h-9.91a.9.9,0,0,1,.9.9v65.432h9.91V200.825A.9.9,0,0,0,442.418,199.929Z" transform="translate(-342.687 -157.436)"/><g transform="translate(71.557 52.525)"><path class="d" d="M368.826,252.907H347.92a1.34,1.34,0,0,1-1.34-1.34v-3.1a1.34,1.34,0,0,1,1.34-1.34h20.906a1.34,1.34,0,0,1,1.34,1.34v3.1A1.34,1.34,0,0,1,368.826,252.907Z" transform="translate(-346.58 -247.129)"/><path class="d" d="M368.826,315.239H347.92a1.34,1.34,0,0,1-1.34-1.34v-3.1a1.34,1.34,0,0,1,1.34-1.34h20.906a1.34,1.34,0,0,1,1.34,1.34v3.1A1.34,1.34,0,0,1,368.826,315.239Z" transform="translate(-346.58 -296.213)"/><path class="d" d="M368.826,377.571H347.92a1.34,1.34,0,0,1-1.34-1.34v-3.1a1.34,1.34,0,0,1,1.34-1.34h20.906a1.34,1.34,0,0,1,1.34,1.34v3.1A1.34,1.34,0,0,1,368.826,377.571Z" transform="translate(-346.58 -345.297)"/><path class="d" d="M368.826,439.9H347.92a1.34,1.34,0,0,1-1.34-1.34v-3.1a1.34,1.34,0,0,1,1.34-1.34h20.906a1.34,1.34,0,0,1,1.34,1.34v3.1A1.34,1.34,0,0,1,368.826,439.9Z" transform="translate(-346.58 -394.381)"/></g><path class="a" d="M195.71,116.051H153.58a1.22,1.22,0,0,1-1.22-1.22V10.4a1.22,1.22,0,0,1,1.22-1.22h42.13a1.22,1.22,0,0,1,1.22,1.22v104.43A1.22,1.22,0,0,1,195.71,116.051Z" transform="translate(-122.082 -7.23)"/><g transform="translate(27.243)"><path class="b" d="M319.6,9.181H309.7a1.22,1.22,0,0,1,1.22,1.22v104.43a1.22,1.22,0,0,1-1.22,1.22h9.91a1.22,1.22,0,0,0,1.22-1.22V10.4A1.22,1.22,0,0,0,319.6,9.181Z" transform="translate(-273.22 -7.23)"/><path class="b" d="M187.6,0H138.689a.606.606,0,0,0-.606.606V4.711a.606.606,0,0,0,.606.606H187.6a.606.606,0,0,0,.606-.606V.606A.606.606,0,0,0,187.6,0Z" transform="translate(-138.083)"/></g><g transform="translate(35.817 11.209)"><path class="d" d="M185.1,61.485h-5.927a.756.756,0,0,1-.756-.756V53.492a.756.756,0,0,1,.756-.756H185.1a.756.756,0,0,1,.756.756v7.237A.756.756,0,0,1,185.1,61.485Z" transform="translate(-178.421 -52.736)"/><path class="d" d="M246.392,61.485h-5.927a.756.756,0,0,1-.756-.756V53.492a.756.756,0,0,1,.756-.756h5.927a.756.756,0,0,1,.756.756v7.237A.756.756,0,0,1,246.392,61.485Z" transform="translate(-226.683 -52.736)"/><path class="d" d="M307.679,61.485h-5.927a.756.756,0,0,1-.756-.756V53.492a.756.756,0,0,1,.756-.756h5.927a.756.756,0,0,1,.756.756v7.237A.756.756,0,0,1,307.679,61.485Z" transform="translate(-274.944 -52.736)"/><path class="d" d="M185.1,153.337h-5.927a.756.756,0,0,1-.756-.756v-7.237a.756.756,0,0,1,.756-.756H185.1a.756.756,0,0,1,.756.756v7.237A.756.756,0,0,1,185.1,153.337Z" transform="translate(-178.421 -125.066)"/><path class="d" d="M246.392,153.337h-5.927a.756.756,0,0,1-.756-.756v-7.237a.756.756,0,0,1,.756-.756h5.927a.756.756,0,0,1,.756.756v7.237A.756.756,0,0,1,246.392,153.337Z" transform="translate(-226.683 -125.066)"/><path class="d" d="M307.679,153.337h-5.927a.756.756,0,0,1-.756-.756v-7.237a.756.756,0,0,1,.756-.756h5.927a.756.756,0,0,1,.756.756v7.237A.756.756,0,0,1,307.679,153.337Z" transform="translate(-274.944 -125.066)"/><path class="d" d="M185.1,245.19h-5.927a.756.756,0,0,1-.756-.756V237.2a.756.756,0,0,1,.756-.756H185.1a.756.756,0,0,1,.756.756v7.237A.756.756,0,0,1,185.1,245.19Z" transform="translate(-178.421 -197.396)"/><path class="d" d="M246.392,245.19h-5.927a.756.756,0,0,1-.756-.756V237.2a.756.756,0,0,1,.756-.756h5.927a.756.756,0,0,1,.756.756v7.237A.756.756,0,0,1,246.392,245.19Z" transform="translate(-226.683 -197.396)"/><path class="d" d="M307.679,245.19h-5.927a.756.756,0,0,1-.756-.756V237.2a.756.756,0,0,1,.756-.756h5.927a.756.756,0,0,1,.756.756v7.237A.756.756,0,0,1,307.679,245.19Z" transform="translate(-274.944 -197.396)"/><path class="d" d="M246.392,337.043h-5.927a.756.756,0,0,1-.756-.756V329.05a.756.756,0,0,1,.756-.756h5.927a.756.756,0,0,1,.756.756v7.237A.756.756,0,0,1,246.392,337.043Z" transform="translate(-226.683 -269.727)"/><path class="d" d="M307.679,337.043h-5.927a.756.756,0,0,1-.756-.756V329.05a.756.756,0,0,1,.756-.756h5.927a.756.756,0,0,1,.756.756v7.237A.756.756,0,0,1,307.679,337.043Z" transform="translate(-274.944 -269.727)"/><path class="d" d="M246.392,428.9h-5.927a.756.756,0,0,1-.756-.756V420.9a.756.756,0,0,1,.756-.756h5.927a.756.756,0,0,1,.756.756v7.237A.756.756,0,0,1,246.392,428.9Z" transform="translate(-226.683 -342.057)"/><path class="d" d="M307.679,428.9h-5.927a.756.756,0,0,1-.756-.756V420.9a.756.756,0,0,1,.756-.756h5.927a.756.756,0,0,1,.756.756v7.237A.756.756,0,0,1,307.679,428.9Z" transform="translate(-274.944 -342.057)"/></g><path class="a" d="M74.407,329.153H29.584a.931.931,0,0,1-.932-.932V280.733a.931.931,0,0,1,.932-.932H74.407a.931.931,0,0,1,.932.932v47.489A.931.931,0,0,1,74.407,329.153Z" transform="translate(-24.667 -220.332)"/><path class="b" d="M206.552,279.8H196.464a.931.931,0,0,1,.932.932v47.489a.931.931,0,0,1-.932.932h10.088a.932.932,0,0,0,.932-.932V280.733A.931.931,0,0,0,206.552,279.8Z" transform="translate(-156.812 -220.332)"/><g transform="translate(9.503 67.332)"><path class="d" d="M61.418,322.4H55.551a.935.935,0,0,1-.935-.935V317.73a.935.935,0,0,1,.935-.935h5.866a.935.935,0,0,1,.935.935v3.736A.935.935,0,0,1,61.418,322.4Z" transform="translate(-54.616 -316.795)"/><path class="d" d="M125.67,322.4H119.8a.935.935,0,0,1-.935-.935V317.73a.935.935,0,0,1,.935-.935h5.866a.935.935,0,0,1,.935.935v3.736A.935.935,0,0,1,125.67,322.4Z" transform="translate(-105.212 -316.795)"/><path class="d" d="M189.922,322.4h-5.866a.935.935,0,0,1-.935-.935V317.73a.935.935,0,0,1,.935-.935h5.866a.935.935,0,0,1,.935.935v3.736A.935.935,0,0,1,189.922,322.4Z" transform="translate(-155.808 -316.795)"/><path class="d" d="M61.418,384.1H55.551a.935.935,0,0,1-.935-.935v-3.736a.935.935,0,0,1,.935-.935h5.866a.935.935,0,0,1,.935.935v3.736A.935.935,0,0,1,61.418,384.1Z" transform="translate(-54.616 -365.38)"/><path class="d" d="M125.67,384.1H119.8a.935.935,0,0,1-.935-.935v-3.736a.935.935,0,0,1,.935-.935h5.866a.935.935,0,0,1,.935.935v3.736A.935.935,0,0,1,125.67,384.1Z" transform="translate(-105.212 -365.38)"/><path class="d" d="M189.922,384.1h-5.866a.935.935,0,0,1-.935-.935v-3.736a.935.935,0,0,1,.935-.935h5.866a.935.935,0,0,1,.935.935v3.736A.935.935,0,0,1,189.922,384.1Z" transform="translate(-155.808 -365.38)"/><path class="d" d="M61.418,445.8H55.551a.935.935,0,0,1-.935-.935v-3.736a.935.935,0,0,1,.935-.935h5.866a.935.935,0,0,1,.935.935v3.736A.935.935,0,0,1,61.418,445.8Z" transform="translate(-54.616 -413.966)"/><path class="d" d="M125.67,445.8H119.8a.935.935,0,0,1-.935-.935v-3.736a.935.935,0,0,1,.935-.935h5.866a.935.935,0,0,1,.935.935v3.736A.935.935,0,0,1,125.67,445.8Z" transform="translate(-105.212 -413.966)"/><path class="d" d="M189.922,445.8h-5.866a.935.935,0,0,1-.935-.935v-3.736a.935.935,0,0,1,.935-.935h5.866a.935.935,0,0,1,.935.935v3.736A.935.935,0,0,1,189.922,445.8Z" transform="translate(-155.808 -413.966)"/></g><path class="e" d="M112.019,488.51H12.4a2.5,2.5,0,0,0-2.5,2.5h0a2.5,2.5,0,0,0,2.5,2.5h99.618a2.5,2.5,0,0,0,2.5-2.5h0A2.5,2.5,0,0,0,112.019,488.51Z" transform="translate(-9.904 -384.682)"/><path class="e" d="M114.5,490.732c0-.017-.005-.033-.007-.049-.01-.076-.022-.15-.039-.224,0-.01-.006-.021-.008-.031q-.029-.121-.069-.237l0-.009a2.5,2.5,0,0,0-.1-.244h0a2.494,2.494,0,0,0-2.254-1.428h-7.413v.636a2.22,2.22,0,0,1-2.22,2.22H12.4a2.494,2.494,0,0,1-2.254-1.428,2.482,2.482,0,0,0-.243,1.068h0a2.5,2.5,0,0,0,2.5,2.5h99.618a2.5,2.5,0,0,0,2.5-2.5h0A2.531,2.531,0,0,0,114.5,490.732Z" transform="translate(-9.904 -384.681)"/></svg>