<svg xmlns="http://www.w3.org/2000/svg" width="83.434" height="109" viewBox="0 0 83.434 114.96"><defs><style>.a{fill:#003b49;}.b{fill:#024b5d;}.c{fill:#e1effb;}</style></defs><g transform="translate(-69.657)"><path class="a" d="M69.657,64.974h83.434V165.23H69.657Z" transform="translate(0 -50.271)"/><path class="b" d="M254.007,64.974h41.717V165.23H254.007Z" transform="translate(-142.633 -50.271)"/><path class="c" d="M221.556,366.781V388.63H194.727V366.781A13.065,13.065,0,0,1,207.8,353.713h.692a13.065,13.065,0,0,1,13.068,13.068Z" transform="translate(-96.768 -273.671)"/><path class="c" d="M133,264.622h6.789v12.657H133Z" transform="translate(-49.005 -204.74)"/><path class="c" d="M203.669,264.622h6.789v12.657h-6.789Z" transform="translate(-103.686 -204.74)"/><path class="c" d="M274.344,264.622h6.789v12.657h-6.789Z" transform="translate(-158.368 -204.74)"/><path class="c" d="M345.019,264.622h6.789v12.657h-6.789Z" transform="translate(-213.05 -204.74)"/><path class="c" d="M133,151.722h6.789v12.657H133Z" transform="translate(-49.005 -117.389)"/><path class="c" d="M203.669,151.722h6.789v12.657h-6.789Z" transform="translate(-103.686 -117.389)"/><g transform="translate(115.976 34.333)"><path class="c" d="M274.344,151.722h6.789v12.657h-6.789Z" transform="translate(-274.344 -151.722)"/><path class="c" d="M345.019,151.722h6.789v12.657h-6.789Z" transform="translate(-329.026 -151.722)"/><path class="c" d="M345.019,383.892h6.789v16.1h-6.789Z" transform="translate(-329.026 -331.354)"/></g><path class="c" d="M133,383.892h6.789v16.1H133Z" transform="translate(-49.005 -297.02)"/><path class="b" d="M245.8,354.073V388.63h-6.789V354.073a13.009,13.009,0,0,1,3.048-.36h.692A13.008,13.008,0,0,1,245.8,354.073Z" transform="translate(-131.027 -273.671)"/><path class="b" d="M111.374,0,69.657,14.7h83.434Z" transform="translate(0)"/><path class="a" d="M295.724,14.7,254.007,0V14.7Z" transform="translate(-142.633)"/><path class="c" d="M257.4,354.073a13.008,13.008,0,0,0-3.048-.36h-.346V388.63h13.415V366.781A13.091,13.091,0,0,0,257.4,354.073Z" transform="translate(-142.633 -273.671)"/><path class="b" d="M254.353,353.713h-.346V388.63H257.4V354.073a13.009,13.009,0,0,0-3.048-.36Z" transform="translate(-142.633 -273.671)"/></g></svg>