<svg xmlns="http://www.w3.org/2000/svg" width="109" height="109" viewBox="0 0 101 101"><defs><style>.a{fill:#f6a96c;}.b{fill:#024b5d;}.c{fill:#ffda2d;}.d{fill:#fdbf00;}.e{fill:#ffbd86;}.f{fill:#fed2a4;}.g{fill:#003b49;}</style></defs><path class="a" d="M357.836,294.869A11.848,11.848,0,0,1,346,283.033a11.838,11.838,0,1,1,23.672,0A11.848,11.848,0,0,1,357.836,294.869Zm0,0" transform="translate(-277.746 -217.541)"/><path class="b" d="M339.317,392a20.556,20.556,0,0,0-12.042,3.918l-4.345,9.816,7.51,9.939h29.787v-2.959A20.883,20.883,0,0,0,339.317,392Zm0,0" transform="translate(-259.227 -314.672)"/><path class="c" d="M14.992,25,5.826,29.787l1.74-10.508L0,12.093l10.491-1.479L14.992,0,19.6,10.613l10.183,1.479-7.369,7.186,1.74,10.508Zm0,0" transform="translate(0 0)"/><path class="c" d="M203.192,19.253l1.775,10.534-9.173-4.794-9.173,4.794L188.4,19.253l-7.4-7.16,10.3-1.479L195.795,0l4.616,10.613,10.178,1.479Zm0,0" transform="translate(-145.295)"/><path class="d" d="M375.795,25l-9.166,4.791,1.74-10.508L361,12.093l10.293-1.479L375.795,0l4.612,10.613,10.38,1.479-7.566,7.186,1.74,10.508Zm0,0" transform="translate(-289.787 0)"/><path class="e" d="M57.836,294.869A11.848,11.848,0,0,1,46,283.033a11.838,11.838,0,1,1,23.672,0A11.848,11.848,0,0,1,57.836,294.869Zm0,0" transform="translate(-36.926 -217.541)"/><path class="b" d="M20.91,392A20.883,20.883,0,0,0,0,412.713v2.959H29.787l7.34-8.877-4.176-10.877A20.551,20.551,0,0,0,20.91,392Zm0,0" transform="translate(0 -314.672)"/><path class="d" d="M265.173,29.787,256,24.994V0l4.616,10.613,10.178,1.479-7.4,7.16Zm0,0" transform="translate(-205.5 0)"/><path class="f" d="M207.836,241A11.871,11.871,0,0,0,196,252.836a11.838,11.838,0,1,0,23.672,0A11.871,11.871,0,0,0,207.836,241Zm0,0" transform="translate(-157.336 -193.459)"/><path class="g" d="M192.426,382.713v8.877H151v-8.877a20.713,20.713,0,0,1,41.426,0Zm0,0" transform="translate(-121.213 -290.59)"/><path class="a" d="M256,264.869V241a11.871,11.871,0,0,1,11.836,11.836A12.041,12.041,0,0,1,256,264.869Zm0,0" transform="translate(-205.5 -193.459)"/><path class="b" d="M276.713,382.713v8.877H256V362a20.813,20.813,0,0,1,20.713,20.713Zm0,0" transform="translate(-205.5 -290.59)"/></svg>